<?xml version="1.0" standalone="no"?><!DOCTYPE svg PUBLIC "-//W3C//DTD SVG 1.1//EN" "http://www.w3.org/Graphics/SVG/1.1/DTD/svg11.dtd"><svg t="1522376989678" class="icon" style="" viewBox="0 0 1024 1024" version="1.1" xmlns="http://www.w3.org/2000/svg" p-id="5100" xmlns:xlink="http://www.w3.org/1999/xlink" width="64" height="64"><defs><style type="text/css"></style></defs><path d="M819.2 238.933333V204.8a68.266667 68.266667 0 0 0-68.266667-68.266667H102.4a68.266667 68.266667 0 0 0-68.266667 68.266667v34.133333h785.066667zM34.133333 341.333333v307.2a68.266667 68.266667 0 0 0 68.266667 68.266667h648.533333a68.266667 68.266667 0 0 0 68.266667-68.266667v-307.2H34.133333zM989.866667 375.466667v-34.133334a68.266667 68.266667 0 0 0-68.266667-68.266666h-34.133333v102.4h102.4z" fill="" p-id="5101"></path><path d="M887.466667 477.866667v238.933333a68.266667 68.266667 0 0 1-68.266667 68.266667H204.8v34.133333a68.266667 68.266667 0 0 0 68.266667 68.266667h648.533333a68.266667 68.266667 0 0 0 68.266667-68.266667V477.866667h-102.4z" fill="" p-id="5102"></path></svg>