<?xml version="1.0" standalone="no"?><!DOCTYPE svg PUBLIC "-//W3C//DTD SVG 1.1//EN" "http://www.w3.org/Graphics/SVG/1.1/DTD/svg11.dtd"><svg t="1522398395361" class="icon" style="" viewBox="0 0 1025 1024" version="1.1" xmlns="http://www.w3.org/2000/svg" p-id="6597" xmlns:xlink="http://www.w3.org/1999/xlink" width="32.03125" height="32"><defs><style type="text/css"></style></defs><path d="M340.777986 102.413005c18.944967 0 35.110807 6.523884 48.607086 19.697605 13.482968 13.083609 20.228035 29.024169 20.228035 47.99576l0 273.140941c0 18.917319-6.745068 35.080087-20.228035 48.554862-13.49628 13.557719-29.661095 20.196291-48.607086 20.196291L67.718965 511.998464c-18.971591 0-34.993047-6.637548-48.079728-20.196291C6.586348 478.327397 0.004096 462.16463 0.004096 443.217614L0.004096 170.185217c0-18.996167 6.582252-34.989975 19.635141-48.050032 13.137881-13.144025 29.108137-19.722181 48.079728-19.722181L340.777986 102.413005 340.777986 102.413005 340.777986 102.413005zM340.777986 614.381773c18.944967 0 35.110807 6.607852 48.607086 19.667909 13.502423 13.167576 20.228035 29.108137 20.228035 48.056176l0 274.220233c0 18.948039-6.725612 34.947991-20.228035 48.056176-13.49628 13.060057-29.661095 19.613637-48.607086 19.613637L67.751733 1023.995904c-18.971591 0-35.000215-6.55358-48.085872-19.667909-13.052889-13.114329-19.660741-29.054889-19.660741-48.001904L0.00512 682.105858c0-18.893767 6.582252-35.002263 19.660741-48.056176C32.778142 620.989625 48.780142 614.381773 67.751733 614.381773L340.777986 614.381773 340.777986 614.381773 340.777986 614.381773zM854.109694 614.381773c19.004359 0 35.000215 6.607852 48.111472 19.667909 13.000665 13.167576 19.609541 29.162409 19.609541 48.056176l0 274.220233c0 18.948039-6.608876 34.947991-19.609541 48.056176-13.170648 13.060057-29.108137 19.613637-48.111472 19.613637L581.056817 1023.995904c-18.944967 0-35.084183-6.55358-48.61323-19.667909-13.47068-13.114329-20.195267-29.108137-20.195267-48.001904L512.248319 682.105858c0-18.893767 6.724588-35.002263 20.195267-48.056176 13.528023-13.060057 29.668263-19.667909 48.61323-19.667909L854.109694 614.381773 854.109694 614.381773 854.109694 614.381773zM1003.724861 208.271759c13.49628 13.551575 20.273091 29.445032 20.273091 47.726449 0 18.388937-6.776812 33.886106-20.273091 46.748532l-189.061577 188.947913c-13.49628 13.551575-29.270952 20.303811-47.21957 20.303811-17.89025 0-33.664923-6.752236-47.220594-20.303811l-188.865993-188.947913c-12.942297-12.862425-19.35559-28.472235-19.35559-46.748532 0-18.227145 6.413293-34.173849 19.35559-47.726449L720.333711 19.306438c13.554647-12.861401 29.32932-19.307462 47.277938-19.307462 17.884106 0 33.664923 6.446061 47.21957 19.277766L1003.724861 208.271759 1003.724861 208.271759 1003.724861 208.271759zM1003.724861 208.271759" p-id="6598"></path></svg>