<?xml version="1.0" standalone="no"?><!DOCTYPE svg PUBLIC "-//W3C//DTD SVG 1.1//EN" "http://www.w3.org/Graphics/SVG/1.1/DTD/svg11.dtd"><svg t="1522398798689" class="icon" style="" viewBox="0 0 1024 1024" version="1.1" xmlns="http://www.w3.org/2000/svg" p-id="19545" xmlns:xlink="http://www.w3.org/1999/xlink" width="32" height="32"><defs><style type="text/css"></style></defs><path d="M918.030289 1023.951233H105.920945C47.449852 1023.951233 0 974.843318 0 914.275264V109.724736C0 49.107915 47.449852 0 105.920945 0h812.109344c58.519859 0 105.920945 49.107915 105.920944 109.724736v804.550528c0.048767 60.568054-47.401086 109.675969-105.920944 109.675969zM450.749214 514.877226c0-15.605296-2.243261-30.625393-6.339651-44.816458l167.951995-98.996095a147.226212 147.226212 0 0 0 111.041433 51.253643c83.000667 0 150.249738-69.931232 150.249738-156.199257s-67.249071-156.199257-150.249738-156.199257-150.249738 69.931232-150.249738 156.199257c0 15.751595 2.292028 30.917992 6.437184 45.255358l-167.756929 98.898561a147.031146 147.031146 0 0 0-111.334032-51.643775c-83.000667 0-150.249738 69.931232-150.249738 156.199257S217.498809 671.027717 300.499476 671.027717a146.299648 146.299648 0 0 0 96.606534-36.623679l178.388037 102.848653a167.269264 167.269264 0 0 0-2.292028 26.333936c0 86.268026 67.249071 156.199257 150.249738 156.199257s150.249738-69.931232 150.249738-156.199257-67.249071-156.199257-150.249738-156.199257c-50.619678 0-95.289837 26.13887-122.501571 65.981141l-163.563006-94.314506a160.441947 160.441947 0 0 0 13.362034-64.176779z" p-id="19546"></path></svg>