<?xml version="1.0" standalone="no"?><!DOCTYPE svg PUBLIC "-//W3C//DTD SVG 1.1//EN" "http://www.w3.org/Graphics/SVG/1.1/DTD/svg11.dtd"><svg t="1516353351611" class="icon" style="" viewBox="0 0 1024 1024" version="1.1" xmlns="http://www.w3.org/2000/svg" p-id="8319" xmlns:xlink="http://www.w3.org/1999/xlink" width="40" height="40"><defs><style type="text/css"></style></defs><path d="M128.553864 704.375425 960.462918 704.375425 960.462918 767.610632 128.553864 767.610632 128.553864 704.375425Z" p-id="8320" fill=""></path><path d="M128.553864 832.325539 960.462918 832.325539 960.462918 893.467061 128.553864 893.467061 128.553864 832.325539Z" p-id="8321" fill=""></path><path d="M277.729395 479.95312l-78.007655 0c-12.006452 0-21.747303 9.413394-21.747303 21.025872l0 45.703925c0 11.618619 9.740852 21.015639 21.747303 21.015639l42.651402 0c-0.310062-3.245927-0.522909-6.535857-0.522909-9.871835C241.84921 526.885012 255.765151 499.187183 277.729395 479.95312L277.729395 479.95312zM221.431182 457.07404l418.944628 0 0-38.312584-0.189312 0c0.099261-1.226944 0.189312-2.470261 0.189312-3.721765L640.375809 144.394644c0-23.229051-19.462261-42.056861-43.454698-42.056861L221.437321 102.337783c-24.004717 0-43.458791 18.827811-43.458791 42.056861l-0.004093 0 0 270.645047C177.974437 438.263625 197.432605 457.07404 221.431182 457.07404L221.431182 457.07404zM348.503299 477.475695c-46.215578 0-83.637886 36.261878-83.637886 80.981383 0 44.700061 37.422308 80.950683 83.637886 80.950683 46.211485 0 83.669608-36.250622 83.669608-80.950683C432.171883 513.737574 394.714783 477.475695 348.503299 477.475695L348.503299 477.475695zM892.006803 479.95312l-1.89107 0 0-133.224234-94.679359-155.389046L682.539094 191.33984c-12.008498 0-21.725814 9.414417-21.725814 21.014616l0 267.598664L423.107437 479.95312c21.99392 19.237133 35.882232 46.940079 35.882232 77.872578 0 3.335978-0.185218 6.625908-0.497327 9.871835l197.690478 0c-0.276293-3.039219-0.467651-6.113231-0.467651-9.241478 0-31.405267 14.44499-59.467393 37.177737-78.503958 18.837021-15.759939 43.281759-25.332968 70.125127-25.332968 26.822902 0 51.28606 9.573029 70.125127 25.332968 22.733771 19.036565 37.176714 47.098691 37.176714 78.503958 0 3.128247-0.213871 6.202259-0.490164 9.241478l22.178115 0c12.000312 0 21.741163-9.408277 21.741163-21.015639l0-45.703925C913.74899 489.366514 904.007115 479.95312 892.006803 479.95312L892.006803 479.95312zM685.989683 349.887832 685.989683 235.999992c0 0-1.051959-17.287735 18.914792-17.287735l79.863932 0 79.863932 131.175575L685.989683 349.887832 685.989683 349.887832zM764.940826 477.475695c-46.215578 0-83.672678 36.261878-83.672678 80.981383 0 44.700061 37.461193 80.950683 83.672678 80.950683 46.215578 0 83.663468-36.250622 83.663468-80.950683C848.604294 513.737574 811.156404 477.475695 764.940826 477.475695L764.940826 477.475695z" p-id="8322"></path></svg>