<?xml version="1.0" standalone="no"?><!DOCTYPE svg PUBLIC "-//W3C//DTD SVG 1.1//EN" "http://www.w3.org/Graphics/SVG/1.1/DTD/svg11.dtd"><svg t="1511147519902" class="icon" style="" viewBox="0 0 1024 1024" version="1.1" xmlns="http://www.w3.org/2000/svg" p-id="5302" xmlns:xlink="http://www.w3.org/1999/xlink" width="64" height="64"><defs><style type="text/css"></style></defs><path d="M833.024 261.056l-148.48 0q5.888-3.936 11.808-7.36t11.808-7.872 11.296-8.864 10.336-8.352q44.256-42.272 51.616-94.4t-28.032-84.576q-28.512-26.56-73.728-26.56-64.896 0-117.984 49.152-30.496 27.52-49.152 67.84-19.648-40.32-50.144-67.84-53.088-49.152-117.984-49.152-45.216 0-73.728 26.56-35.392 32.448-28.032 84.576t51.616 94.4q19.648 17.696 45.216 32.448l-148.48 0q-26.56 0-45.216 18.688t-18.688 45.216l0 225.152 352.992 0 0-260.576q18.688-4.928 30.496-16.704l1.952-0.992 0.992 0.992q11.808 11.808 30.496 16.704l0 260.576 352.992 0 0-225.152q0-26.56-18.688-45.248t-45.216-18.688zM466.272 224.672q-0.992 0-0.992 0.48t-1.472 0.992-3.424 0.48-4.928 0.48-5.888 0.48q-25.568 0-57.024-13.28t-53.088-33.92q-16.704-14.752-24.576-31.456t-7.872-30.496 7.872-20.64q9.824-9.824 29.504-9.824 39.328 0 73.728 31.456 26.56 25.568 39.808 59.968t8.352 45.216zM558.72 225.664q-2.944-3.936-0.48-16.704t7.36-27.04 15.744-31.456 24.576-30.976q16.704-14.752 35.872-23.104t37.856-8.352q19.648 0 29.504 9.824 7.872 6.88 7.872 20.64 0 8.832-2.944 18.176t-10.336 21.152-19.168 22.624q-13.76 13.76-32.928 24.096t-39.808 16.704-37.376 6.4q-3.936 0-7.872-0.48t-5.888-1.472l-1.952 0zM543.968 903.104l289.056 0q26.56 0 45.216-18.688t18.688-45.216l0-225.152-352.992 0 0 289.056zM127.072 839.2q0 26.56 18.688 45.216t45.216 18.688l289.056 0 0-289.056-352.992 0 0 225.152z" p-id="5303"></path></svg>