<?xml version="1.0" standalone="no"?><!DOCTYPE svg PUBLIC "-//W3C//DTD SVG 1.1//EN" "http://www.w3.org/Graphics/SVG/1.1/DTD/svg11.dtd"><svg t="1522225141510" class="icon" style="" viewBox="0 0 1024 1024" version="1.1" xmlns="http://www.w3.org/2000/svg" p-id="1128" xmlns:xlink="http://www.w3.org/1999/xlink" width="32" height="32"><defs><style type="text/css"></style></defs><path d="M298.666667 640 490.666667 384 640 576 746.666667 448 896 640M938.666667 170.666667 597.333333 170.666667 512 85.333333 256 85.333333C209.066667 85.333333 170.666667 123.733333 170.666667 170.666667L170.666667 682.666667C170.666667 729.6 209.066667 768 256 768L938.666667 768C985.6 768 1024 729.6 1024 682.666667L1024 256C1024 209.066667 985.6 170.666667 938.666667 170.666667M85.333333 256 0 256 0 469.333333 0 469.333333 0 853.333333C0 900.266667 38.4 938.666667 85.333333 938.666667L853.333333 938.666667 853.333333 853.333333 85.333333 853.333333 85.333333 256Z" p-id="1129"></path></svg>