<?xml version="1.0" standalone="no"?><!DOCTYPE svg PUBLIC "-//W3C//DTD SVG 1.1//EN" "http://www.w3.org/Graphics/SVG/1.1/DTD/svg11.dtd"><svg t="1511238850034" class="icon" style="" viewBox="0 0 1025 1024" version="1.1" xmlns="http://www.w3.org/2000/svg" p-id="2521" xmlns:xlink="http://www.w3.org/1999/xlink" width="64.0625" height="64"><defs><style type="text/css"></style></defs><path d="M526.368704 0c-275.286675 0-498.451631 223.490734-498.451631 499.181179 0 275.679274 223.165972 499.171023 498.451631 499.171023 275.28566 0 498.450616-223.492765 498.450616-499.171023C1024.819421 223.490734 801.654363 0 526.368704 0zM449.44562 778.987819c-99.23308-14.355756-46.727698-148.160997-14.601917-210.571935 28.066252-54.522706 50.191424-141.88632-4.462385-142.160307-7.889654-0.030466-14.564444-5.821045 7.279633-18.383601 29.489093-17.014582 73.028067-35.985863 114.970649-31.544906 73.029083 7.807092 82.763728 89.695648 51.593955 150.180454-31.132199 60.432101-61.3286 144.298579-49.647513 168.664592 9.410898 19.600394 47.900925 23.1087 73.009788 23.197964 13.001462 0.092311 18.576143 3.854294 10.909903 10.719595C614.223016 750.665961 551.515242 793.792128 449.44562 778.987819zM570.497287 317.182746c-44.433036 0-80.472112-36.077158-80.472112-80.581483 0-44.513465 36.039076-80.581483 80.472112-80.581483 44.454362 0 80.492423 36.068019 80.492423 80.581483C650.990827 281.105588 614.951751 317.182746 570.497287 317.182746z" p-id="2522"></path></svg>