<?xml version="1.0" standalone="no"?><!DOCTYPE svg PUBLIC "-//W3C//DTD SVG 1.1//EN" "http://www.w3.org/Graphics/SVG/1.1/DTD/svg11.dtd"><svg t="1522398711458" class="icon" style="" viewBox="0 0 1024 1024" version="1.1" xmlns="http://www.w3.org/2000/svg" p-id="17168" xmlns:xlink="http://www.w3.org/1999/xlink" width="32" height="32"><defs><style type="text/css"></style></defs><path d="M703.744 1023.872c-176.704 0-319.552-143.744-319.616-320.448C384.064 526.656 526.72 384 703.424 384.064c176.768 0.064 320.512 142.912 320.512 319.616C1024.064 880.448 880.512 1024 703.744 1023.872zM894.528 518.208c-1.088-1.472-2.816-2.688-5.376-3.776s-6.08-1.728-10.56-1.984C874.048 512.128 868.416 512 861.568 512c-8.064 0-14.592 0.192-19.52 0.576s-8.832 1.152-11.648 2.176c-2.88 1.088-4.992 2.432-6.528 4.032s-2.56 3.584-3.136 6.016l-112.512 296.128-1.344 4.8-1.728-4.8L591.36 524.8c-1.216-2.432-2.432-4.416-3.84-6.016S584.128 515.904 581.312 514.752C578.432 513.728 574.464 513.024 569.216 512.576S556.992 512 548.288 512C541.44 512 535.744 512.128 531.072 512.384 526.464 512.64 522.752 513.28 519.936 514.176s-4.864 2.176-6.08 3.84C512.64 519.616 512.064 521.408 512.064 523.584c0 0.832 0.064 1.792 0.192 3.008 0.128 1.216 0.576 3.008 1.344 5.376 0.768 2.368 1.728 5.184 2.88 8.384l137.152 341.312c1.152 2.624 2.816 4.928 4.864 6.72 2.112 1.856 4.992 3.392 8.768 4.416s8.64 1.792 14.592 2.368S695.296 896 704.32 896c8.96 0 16.384-0.192 22.4-0.64 6.016-0.384 10.88-1.152 14.72-2.176s6.784-2.496 8.768-4.352c1.984-1.792 3.52-4.224 4.736-7.168l137.472-341.312c0.64-1.856 1.152-3.584 1.6-5.184 0.448-1.6 0.832-3.072 1.152-4.416 0.256-1.344 0.512-2.624 0.64-3.776 0.128-1.216 0.256-2.368 0.256-3.392C896.064 521.408 895.552 519.68 894.528 518.208zM736.064 320C599.936 320 480.128 386.368 404.288 487.424 316.992 446.656 256.064 358.656 256.064 256c0-141.376 104.064-256 248.96-256s262.976 114.624 262.976 256c0 23.104-4.032 44.992-9.728 66.304C750.784 321.856 743.68 320 736.064 320zM386.432 512c-41.536 64.768-66.368 141.376-66.368 224 0 112 44.736 213.248 116.736 288L358.208 1024c-197.76 0-358.144-0.128-358.144-83.52l0-23.872c0-204.16 186.24-404.608 384-404.608L386.432 512z" p-id="17169"></path></svg>