<?xml version="1.0" standalone="no"?><!DOCTYPE svg PUBLIC "-//W3C//DTD SVG 1.1//EN" "http://www.w3.org/Graphics/SVG/1.1/DTD/svg11.dtd"><svg t="1511147663347" class="icon" style="" viewBox="0 0 1024 1024" version="1.1" xmlns="http://www.w3.org/2000/svg" p-id="7561" xmlns:xlink="http://www.w3.org/1999/xlink" width="64" height="64"><defs><style type="text/css"></style></defs><path d="M725.333333 472.177778c34.133333 0 68.266667 5.688889 99.555556 19.911111V125.155556c0-34.133333-25.6-59.733333-59.733333-59.733334H153.6c-34.133333 0-59.733333 25.6-59.733333 59.733334V847.644444c0 34.133333 25.6 59.733333 59.733333 59.733334H483.555556c-28.444444-42.666667-42.666667-96.711111-42.666667-150.755556-2.844444-156.444444 128-284.444444 284.444444-284.444444zM238.933333 227.555556h378.311111c22.755556 0 39.822222 17.066667 39.822223 39.822222 0 22.755556-17.066667 39.822222-39.822223 39.822222H238.933333c-19.911111 0-39.822222-19.911111-39.822222-39.822222C199.111111 244.622222 219.022222 227.555556 238.933333 227.555556z m0 179.2h250.311111c22.755556 0 39.822222 17.066667 39.822223 39.822222 0 22.755556-17.066667 39.822222-39.822223 39.822222H238.933333c-22.755556 0-39.822222-17.066667-39.822222-39.822222 0-22.755556 19.911111-39.822222 39.822222-39.822222z m122.311111 256H238.933333c-22.755556 0-39.822222-17.066667-39.822222-39.822223s17.066667-39.822222 39.822222-39.822222h119.466667c22.755556 0 39.822222 17.066667 39.822222 39.822222 2.844444 19.911111-14.222222 39.822222-36.977778 39.822223z" p-id="7562"></path><path d="M725.333333 551.822222c-113.777778 0-204.8 91.022222-204.8 204.8s91.022222 204.8 204.8 204.8 204.8-91.022222 204.8-204.8-91.022222-204.8-204.8-204.8z m102.4 241.777778H682.666667l42.666666 45.511111c11.377778 11.377778 8.533333 28.444444-2.844444 39.822222-5.688889 5.688889-11.377778 8.533333-19.911111 8.533334-8.533333 0-14.222222-2.844444-19.911111-8.533334l-88.177778-93.866666c-11.377778-11.377778-8.533333-31.288889 0-39.822223l91.022222-93.866666c11.377778-11.377778 28.444444-11.377778 39.822222 0 11.377778 11.377778 11.377778 28.444444 0 39.822222L679.822222 739.555556h147.911111c17.066667 0 28.444444 11.377778 28.444445 28.444444s-14.222222 25.6-28.444445 25.6z" p-id="7563"></path></svg>