<?xml version="1.0" standalone="no"?><!DOCTYPE svg PUBLIC "-//W3C//DTD SVG 1.1//EN" "http://www.w3.org/Graphics/SVG/1.1/DTD/svg11.dtd"><svg t="1511341515146" class="icon" style="" viewBox="0 0 1031 1024" version="1.1" xmlns="http://www.w3.org/2000/svg" p-id="9499" xmlns:xlink="http://www.w3.org/1999/xlink" width="16.109375" height="16"><defs><style type="text/css"></style></defs><path d="M340.287432 555.24813c57.249894 78.626285 145.000902 84.751126 170.502875 84.751125h2.375485c25.498995 0 113.250002-6.124841 170.502874-84.751125 22.499113-30.99944 45.500523-86.998556 55.498805-112.873777 33.875236-40.500389 46.749315-79.000525 38.249981-114.50078-5.11727-21.054762-17.44736-38.647053-34.170062-50.42422 12.170268-37.575951 11.920112-86.325518-3.706671-129.075322-21.999794-60.874172-61.999872-103.750046-118.749455-127.623029C576.168272 2.000252 533.792709 0 517.6676 0h-11.250053c-16.124116 0-58.500672 2.001245-103.123664 20.751002-56.749583 23.873976-96.748668 66.74985-118.87354 127.498944-15.62579 42.747818-15.875946 91.501356-10.626649 134.502308-15.480859 13.497482-26.040998 32.295881-28.837381 53.53826-6.91303 26.960221 5.963034 65.458372 39.836285 105.959754 10.00126 26.000299 33.000684 82.000407 55.50079 112.998854z m-19.12499-227.248487c18.497616-6.9984 30.99944 20.751002 35.501247 33.12477-5.127197-15.874953-19.250068-63.12458-21.499483-112.998854 16.750498-23.37565 50.001338-62.499191 89.625189-68.874188 0 0 85.499607 102.249113 261.374871 100.250846-4.998148 37.249359-14.624175 69.001251-18.626665 81.625174 4.500815-12.373768 16.999661-39.998092 35.501248-33.12477 11.251046 4.248674 30.124888 26.623702-19.500224 80.9978 0 0-28.374791 76.875196-51.373223 108.626094-33.999321 46.749315-86.875463 58.375594-118.749454 58.375594-0.250156 0-0.750467 0-1.250778-0.12607-0.499319 0-0.874552 0-1.249786 0.12607-31.874984 0-84.750133-11.748379-118.749454-58.375594-23.125495-31.750899-51.373223-108.626095-51.373223-108.626094-49.875267-54.37509-30.874362-76.749125-19.625302-80.9978z m653.996056 462.000648C921.159634 720.873962 681.033098 672.001303 681.033098 672.001303c31.874984 182.624501-168.999955 293.749174-168.999955 293.749173S311.284274 854.623819 343.035173 672.001303c0 0-240.24665 49.000715-294.126392 117.998988C-8.217028 863.249223-1.467791 935.375433 2.656799 965.498336c4.248674 30.12588 11.626279 48.375326 60.374853 58.501664H960.780508c48.75056-10.000268 56.126179-28.374791 60.374853-58.501664 4.374745-30.124888 11.125968-102.249113-45.999841-175.499038z" fill="" p-id="9500"></path></svg>