<?xml version="1.0" standalone="no"?><!DOCTYPE svg PUBLIC "-//W3C//DTD SVG 1.1//EN" "http://www.w3.org/Graphics/SVG/1.1/DTD/svg11.dtd"><svg t="1522398645026" class="icon" style="" viewBox="0 0 1024 1024" version="1.1" xmlns="http://www.w3.org/2000/svg" p-id="15838" xmlns:xlink="http://www.w3.org/1999/xlink" width="32" height="32"><defs><style type="text/css"></style></defs><path d="M514.062027 1018.052384h-12.821041c-57.694685-18.936986-230.764712-113.621918-307.690959-195.682192-76.912219-88.372603-115.375342-170.432877-115.375342-265.117808v-378.739726c0-12.624658 6.410521-25.249315 19.217534-31.561644l403.848767-138.871233h19.217535l397.424219 138.871233c12.821041 6.312329 19.231562 18.936986 19.231561 31.561644v366.115068c0 100.99726-32.038575 183.057534-115.375342 265.117808-70.515726 94.684932-243.585753 189.369863-294.855891 208.30685h-12.821041z m161.52548-586.906302h-35.629589v-80.938082c0-67.766356-56.348055-122.82389-125.713534-122.82389-69.295342 0-125.727562 55.127671-125.727562 122.837917v80.938083h-35.629589c-17.099397 0-31.014575 13.606575-31.014575 30.299178v221.548712c0 16.776767 13.915178 30.383342 31.014575 30.383342h322.700274c17.169534 0 31.028603-13.606575 31.028603-30.383342V461.459288c0.070137-16.692603-13.859068-30.299178-31.028603-30.299178zM531.736548 578.026959v48.352438a4.067945 4.067945 0 0 1-4.081973 3.983781h-26.694137a4.067945 4.067945 0 0 1-4.067945-3.983781v-48.352438c-12.568548-6.256219-21.251507-18.852822-21.251507-33.52548 0-20.830685 17.295781-37.789808 38.673535-37.789808 21.363726 0 38.659507 16.959123 38.659506 37.775781 0 14.686685-8.668932 27.283288-21.237479 33.539507z m60.03726-146.866849H436.841205V352.227945c0-41.773589 34.787945-75.747945 77.529425-75.747945 42.755507 0 77.473315 33.974356 77.473315 75.747945l-0.070137 78.90411z" p-id="15839"></path></svg>