<?xml version="1.0" standalone="no"?><!DOCTYPE svg PUBLIC "-//W3C//DTD SVG 1.1//EN" "http://www.w3.org/Graphics/SVG/1.1/DTD/svg11.dtd"><svg t="1522398521399" class="icon" style="" viewBox="0 0 1024 1024" version="1.1" xmlns="http://www.w3.org/2000/svg" p-id="7900" xmlns:xlink="http://www.w3.org/1999/xlink" width="32" height="32"><defs><style type="text/css"></style></defs><path d="M892.088702 126.971297h-26.746269C636.382617 127.559127 535.275843 25.570608 534.688013 24.688863L511.76264 0l-22.925374 24.688863S388.906153 127.559127 157.301101 127.559127h-26.746269L98.518093 125.795637V587.83008c0 121.092997 41.442021 297.442021 402.075775 432.055109l11.168772 4.114811 11.168771-4.114811C883.565165 884.390356 925.007186 708.335247 925.007186 587.83008V125.795637L892.088702 126.971297zM476.19892 705.396096l-207.504019-188.105625L323.657014 470.264064l110.512055 84.059702s152.541906-162.535017 299.793341-238.365098l21.161883 24.688864A1210.929966 1210.929966 0 0 0 476.19892 705.396096z" p-id="7901"></path></svg>